<?xml version="1.0" encoding="utf-8"?>
<!-- Generator: Adobe Illustrator 25.4.1, SVG Export Plug-In . SVG Version: 6.00 Build 0)  -->
<svg version="1.1" id="Layer_1" xmlns="http://www.w3.org/2000/svg" xmlns:xlink="http://www.w3.org/1999/xlink" x="0px" y="0px"
	 viewBox="0 0 48 48" style="enable-background:new 0 0 48 48;" xml:space="preserve">
<style type="text/css">
	.st0{fill:#FFFFFF;}
</style>
<path class="st0" d="M14.4,44c-1,0-1.9-0.3-2.6-1c-0.7-0.7-1.1-1.5-1.1-2.5s0.3-1.8,1.1-2.5c0.7-0.7,1.6-1,2.6-1c1,0,1.8,0.3,2.5,1
	c0.7,0.7,1,1.5,1,2.5s-0.4,1.8-1,2.5C16.2,43.6,15.3,44,14.4,44z M34.3,44c-1,0-1.8-0.3-2.5-1c-0.7-0.7-1-1.5-1-2.5s0.4-1.8,1-2.5
	c0.7-0.7,1.5-1,2.5-1s1.8,0.3,2.5,1c0.7,0.7,1,1.5,1,2.5s-0.4,1.8-1,2.5C36.2,43.6,35.3,44,34.3,44z M11.7,11l5.5,11.4h14.4L37.9,11
	H11.7z M10.2,8h29.5c0.8,0,1.4,0.3,1.8,1.1c0.4,0.7,0.4,1.4,0,2.1l-6.8,12.1c-0.4,0.6-0.8,1.1-1.4,1.5c-0.6,0.4-1.2,0.6-1.9,0.6
	H16.2l-2.8,5.2H38v3H13.9c-1.4,0-2.4-0.5-3-1.4c-0.6-0.9-0.6-2,0-3.1l3.2-5.9L6.4,7H2.5V4h5.8L10.2,8z M17.2,22.4h14.4H17.2z"/>
</svg>
