<?xml version="1.0" encoding="utf-8"?>
<!-- Generator: Adobe Illustrator 25.4.1, SVG Export Plug-In . SVG Version: 6.00 Build 0)  -->
<svg version="1.1" id="Layer_1" xmlns="http://www.w3.org/2000/svg" xmlns:xlink="http://www.w3.org/1999/xlink" x="0px" y="0px"
	 viewBox="0 0 40 10" style="enable-background:new 0 0 40 10;" xml:space="preserve">
<style type="text/css">
	.st0{fill:#FFE96D;}
</style>
<g id="_x35_6822">
	<path class="st0" d="M40,6c-1.6,0-2.3-0.8-3.3-1.7c-1-1-2.3-2.3-4.7-2.3s-3.7,1.3-4.7,2.3c-1,1-1.7,1.7-3.3,1.7
		c-1.6,0-2.3-0.8-3.3-1.7c-1-1-2.3-2.3-4.7-2.3s-3.7,1.3-4.7,2.3C10.3,5.2,9.6,6,8,6C6.4,6,5.7,5.2,4.7,4.3C3.7,3.3,2.4,2,0,2v2
		c1.6,0,2.3,0.8,3.3,1.7C4.3,6.7,5.6,8,8,8s3.7-1.3,4.7-2.3c1-1,1.7-1.7,3.3-1.7c1.6,0,2.3,0.8,3.3,1.7c1,1,2.3,2.3,4.7,2.3
		c2.4,0,3.7-1.3,4.7-2.3c1-1,1.7-1.7,3.3-1.7s2.3,0.8,3.3,1.7c1,1,2.3,2.3,4.7,2.3V6z"/>
</g>
</svg>
