<svg xmlns="http://www.w3.org/2000/svg" width="132" height="24" viewBox="0 0 132 24" xml:space="preserve"><path fill="#fff" d="M5.205 16.528c.09 1.59 1.44 2.91 3.57 2.91 2.01 0 3.33-1.05 3.42-2.49.09-1.35-.84-2.25-2.85-2.82l-2.55-.66c-3.479-1.02-5.22-2.939-5.22-5.76 0-1.77.66-3.24 2.01-4.35 1.35-1.14 3-1.71 4.95-1.71 2.01 0 3.63.57 4.919 1.71 1.29 1.11 1.95 2.64 1.95 4.53h-3.84c0-1.65-1.17-2.7-3.09-2.7-1.77 0-3.09.99-3.09 2.43 0 1.14.81 1.92 2.46 2.37l2.55.75c4.29 1.17 5.85 3.54 5.64 6.3-.09 1.8-.81 3.24-2.22 4.29-1.38 1.05-3.06 1.56-5.04 1.56-2.19 0-3.96-.6-5.34-1.83s-2.07-2.73-2.07-4.53h3.841zm25.44-11.759c2.01-2.07 4.5-3.12 7.44-3.12s5.43 1.05 7.439 3.12c2.04 2.07 3.06 4.56 3.06 7.5 0 2.91-1.02 5.43-3.06 7.5-2.04 2.07-4.53 3.09-7.439 3.09-2.91 0-5.4-1.02-7.44-3.09-2.01-2.07-3.03-4.59-3.03-7.5 0-2.941 1.02-5.431 3.03-7.5zm.78 7.499c0 1.89.63 3.51 1.92 4.83 1.29 1.32 2.88 1.98 4.74 1.98s3.42-.66 4.71-1.98c1.29-1.32 1.95-2.939 1.95-4.83s-.66-3.51-1.95-4.83c-1.29-1.35-2.85-2.01-4.71-2.01s-3.45.66-4.74 2.01c-1.29 1.32-1.92 2.94-1.92 4.83zm30.06-2.07h7.83c1.35 0 2.22-1.05 2.22-2.49 0-1.47-.87-2.4-2.34-2.4h-7.709V1.889h8.1c3.63 0 5.939 2.16 5.939 5.609 0 1.71-.81 3.3-2.729 4.02 1.199.3 2.13.93 2.819 1.89.69.96 1.021 1.95 1.021 2.939 0 1.74-.601 3.21-1.771 4.41-1.17 1.2-2.7 1.8-4.649 1.8h-8.73v-3.42h8.52c1.59 0 2.609-1.32 2.609-2.85 0-1.47-1.02-2.88-2.699-2.88h-8.43v-3.209zm28.02 12.36V1.889h12.779v3.419h-8.97v5.37h7.859v3.39h-7.859v5.07h9.27v3.42H89.505zm41.068 0h-4.619l-4.86-7.35h-1.59v7.35h-3.84V1.889h8.279c2.13 0 3.78.66 4.891 1.979 1.14 1.29 1.71 2.88 1.71 4.71 0 1.59-.45 3-1.351 4.23-.87 1.23-2.189 1.98-3.899 2.25l5.279 7.5zm-11.069-17.25v6.48h4.14c1.891 0 2.91-1.5 2.91-3.21 0-1.68-.99-3.27-2.79-3.27h-4.26z"/></svg>