<?xml version="1.0" encoding="utf-8"?>
<!-- Generator: Adobe Illustrator 25.4.1, SVG Export Plug-In . SVG Version: 6.00 Build 0)  -->
<svg version="1.1" id="Layer_1" xmlns="http://www.w3.org/2000/svg" xmlns:xlink="http://www.w3.org/1999/xlink" x="0px" y="0px"
	 viewBox="0 0 800 800" style="enable-background:new 0 0 800 800;" xml:space="preserve">
<path d="M499,393.8c0,1.4,0,3.2,0,4.9c0,45.2-11.2,87.8-31,125.2l0.7-1.5c-20,37.4-49.4,67.4-85,87.7l-1.1,0.6
	c-35.5,20-78,31.8-123.2,31.8c-1.7,0-3.5,0-5.2-0.1h0.3c-0.2,0-0.5,0-0.7,0c-35.5,0-69.3-7.4-99.8-20.8l1.6,0.6
	C94,596.5,46,548.5,20.8,488.5l-0.6-1.6c-12.7-29.2-20.1-63.2-20.1-99s7.4-69.8,20.8-100.6l-0.6,1.6C46,227.4,94,179.4,154,154.2
	l1.6-0.6c29-12.8,62.8-20.2,98.4-20.2h0.6h0c1.2,0,2.7,0,4.2,0c64.6,0,123.2,25.4,166.4,66.8L425,200l-69.1,66.3
	c-25.2-24.3-59.5-39.3-97.3-39.3c-1.4,0-2.8,0-4.2,0.1h0.2c-0.3,0-0.7,0-1,0c-28.8,0-55.7,8-78.7,21.9l0.7-0.4
	c-47.6,28.8-79,80.4-79,139.2s31.4,110.4,78.3,138.8l0.7,0.4c22.3,13.5,49.2,21.5,78,21.5h1.1h-0.1h1.7c18.3,0,35.9-2.9,52.4-8.3
	l-1.2,0.3c15.2-4.8,28.4-11.6,40.1-20.2l-0.4,0.3c10.3-7.9,19.3-16.9,27-26.9l0.3-0.3c6.6-8.3,12.3-17.8,16.7-28l0.3-0.8
	c3.1-7.3,5.7-15.9,7.3-24.9l0.1-0.8H254.5v-87.5h240.3C497.3,364.2,498.9,378.8,499,393.8L499,393.8L499,393.8z M800,351.4v73h-72.6
	v72.6h-73v-72.6H582v-73h72.6v-72.6h73v72.6H800z"/>
</svg>
