<?xml version="1.0" encoding="utf-8"?>
<!-- Generator: Adobe Illustrator 25.4.1, SVG Export Plug-In . SVG Version: 6.00 Build 0)  -->
<svg version="1.1" id="Layer_1" xmlns="http://www.w3.org/2000/svg" xmlns:xlink="http://www.w3.org/1999/xlink" x="0px" y="0px"
	 viewBox="0 0 800 800" style="enable-background:new 0 0 800 800;" xml:space="preserve">
<style type="text/css">
	.st0{fill:#292D32;}
</style>
<path class="st0" d="M500,758.3H300c-92.3,0-154.9-19.5-196.8-61.5S41.7,592.3,41.7,500V300c0-92.3,19.5-154.9,61.5-196.8
	S207.7,41.7,300,41.7h200c92.3,0,154.9,19.5,196.8,61.5c42,42,61.5,104.5,61.5,196.8v200c0,92.3-19.5,154.9-61.5,196.8
	C654.9,738.8,592.3,758.3,500,758.3z M310.9,125.2c-69.7,0-115.4,13.3-144,41.7c-28.5,28.5-41.7,74.3-41.7,144v178.3
	c0,69.7,13.3,115.4,41.7,144c28.5,28.5,74.3,41.7,144,41.7h178.3c69.7,0,115.4-13.3,144-41.7c28.5-28.4,41.7-74.3,41.7-144V310.9
	c0-69.7-13.3-115.4-41.7-144c-28.5-28.5-74.3-41.7-144-41.7H310.9z"/>
<path class="st0" d="M400,571.5c-94.5,0-171.5-77-171.5-171.5s77-171.5,171.5-171.5s171.5,77,171.5,171.5S494.5,571.5,400,571.5z
	 M400,308.3c-50.5,0-91.7,41.1-91.7,91.7s41.1,91.7,91.7,91.7s91.7-41.1,91.7-91.7S450.5,308.3,400,308.3z"/>
<path class="st0" d="M588.4,277.9h-0.5c-24.6,0-44.5-19.9-44.5-44.5s19.9-44.5,44.5-44.5h0.5c24.6,0,44.5,19.9,44.5,44.5
	S613,277.9,588.4,277.9z"/>
</svg>
