<?xml version="1.0" encoding="utf-8"?>
<!-- Generator: Adobe Illustrator 25.4.1, SVG Export Plug-In . SVG Version: 6.00 Build 0)  -->
<svg version="1.1" id="Layer_1" xmlns="http://www.w3.org/2000/svg" xmlns:xlink="http://www.w3.org/1999/xlink" x="0px" y="0px"
	 viewBox="0 0 800 800" style="enable-background:new 0 0 800 800;" xml:space="preserve">
<path d="M400,0C179.1,0,0,179.1,0,400c0,163.8,98.4,304.4,239.4,366.3c-1.2-27.8-0.3-61.6,6.9-91.9c7.8-32.5,51.6-217.8,51.6-217.8
	S285,430.9,285,393.4c0-59.4,34.4-103.4,77.2-103.4c36.3,0,54.1,27.2,54.1,60c0,36.6-23.4,91.3-35.3,141.9
	c-10,42.5,21.3,76.9,63.1,76.9c75.9,0,126.9-97.2,126.9-212.5c0-87.5-59.1-153.1-166.6-153.1c-121.2,0-196.9,90.3-196.9,191.6
	c0,35,10.3,59.4,26.2,78.4c7.5,8.7,8.4,12.2,5.6,22.2c-1.9,7.2-6.2,25-8.1,32.2c-2.8,10-10.9,13.8-20,10
	c-55.9-22.8-81.9-84.1-81.9-152.8c0-113.8,95.9-250,285.9-250c152.8,0,253.1,110.6,253.1,229.1c0,156.9-87.2,274.1-215.9,274.1
	c-43.1,0-83.8-23.4-97.8-49.7c0,0-23.1,92.2-28.1,110c-8.4,30.9-25,61.6-40.3,85.6c35.9,10.6,74.1,16.6,113.4,16.6
	c220.9,0,400-179.1,400-400C800,179.1,620.9,0,400,0z"/>
</svg>
