<?xml version="1.0" encoding="utf-8"?>
<!-- Generator: Adobe Illustrator 25.4.1, SVG Export Plug-In . SVG Version: 6.00 Build 0)  -->
<svg version="1.1" id="Layer_1" xmlns="http://www.w3.org/2000/svg" xmlns:xlink="http://www.w3.org/1999/xlink" x="0px" y="0px"
	 viewBox="0 0 800 800" style="enable-background:new 0 0 800 800;" xml:space="preserve">
<path d="M800,151.6c-29.3,13.1-61.2,21.8-94.2,25.9c34-20.3,59.9-52.4,72.1-90.8c-31.8,18.7-66.8,32.4-104.2,39.9
	c-30-31.8-72.7-51.8-119.8-51.8c-90.5,0-164.1,73.6-164.1,164.1c0,12.8,1.2,25.3,4.4,37.4c-136.3-6.9-257.4-72.1-338.2-171.6
	c-14,24.3-22.2,52.4-22.2,82.7c0,56.8,29,107,73,136.7c-26.8-0.9-52.1-8.4-74.3-20.6v1.9c0,79.6,56.5,146,131.7,161
	c-13.7,3.7-28.4,5.9-43.4,5.9c-10.6,0-20.9-0.9-30.9-2.8c20.9,65.2,81.4,112.6,153.2,113.9c-56.2,44-127,70.2-203.7,70.2
	c-13.1,0-26.2-0.6-39.3-2.2c72.7,46.5,158.8,73.6,251.5,73.6c302,0,467.1-250.2,467.1-467.1c0-7.2,0-14.4-0.3-21.2
	C750.4,213.4,778.2,184.7,800,151.6"/>
</svg>
